<?xml version="1.0" encoding="UTF-8" standalone="no"?>
<!-- Created with Inkscape (http://www.inkscape.org/) -->

<svg
   width="84.598846mm"
   height="84.479385mm"
   viewBox="0 0 84.598846 84.479385"
   version="1.1"
   id="svg1"
   xml:space="preserve"
   xmlns="http://www.w3.org/2000/svg"
   xmlns:svg="http://www.w3.org/2000/svg"><defs
     id="defs1" /><g
     id="layer1"
     transform="translate(-49.617209,-52.905889)"><path
       style="fill:#000000"
       d="m 101.31948,137.00247 c -1.456786,-0.50378 -3.543476,-2.25802 -4.243141,-3.56712 -0.260143,-0.48674 -2.580411,-8.26337 -5.15615,-17.2814 l -4.683162,-16.396415 -16.39642,-4.68316 c -9.018031,-2.57574 -16.794664,-4.89601 -17.281406,-5.15615 -1.476689,-0.78923 -3.168451,-2.89556 -3.646539,-4.54013 -1.099697,-3.78282 0.973728,-8.1282 4.505209,-9.44178 0.596557,-0.2219 18.170117,-5.52817 39.052356,-11.79172 28.969253,-8.68921 38.168783,-11.35195 38.816133,-11.23505 0.95733,0.17288 1.9297,1.23589 1.9297,2.10956 0,0.55908 -22.32589,75.336635 -23.15591,77.557575 -1.34776,3.60634 -5.99902,5.71969 -9.74067,4.42579 z m 4.32719,-5.312 c 0.75167,-0.67711 1.49573,-3.02277 10.72178,-33.800505 5.45274,-18.19011 9.97771,-33.25151 10.05551,-33.46979 0.0778,-0.21829 -7.60263,7.34184 -17.06761,16.80027 -9.464966,9.45844 -17.209039,17.3215 -17.209039,17.47347 0,0.15197 2.072924,7.531145 4.606498,16.398185 4.038721,14.13476 4.692761,16.19609 5.306421,16.72393 1.01269,0.87109 2.5394,0.81764 3.58644,-0.12556 z m 0.12744,-54.052265 c 9.45844,-9.46498 17.01856,-17.1454 16.80028,-17.0676 -0.21828,0.0778 -15.27969,4.60277 -33.469788,10.0555 -30.777747,9.22606 -33.123409,9.97012 -33.80052,10.72178 -0.943638,1.04754 -0.996664,2.57373 -0.124641,3.58751 0.528409,0.61432 2.581281,1.26819 16.602604,5.28824 8.799803,2.52299 16.178578,4.59543 16.397279,4.60543 0.218701,0.01 8.136357,-7.72588 17.594786,-17.19086 z"
       id="path2" /></g></svg>
